<svg width="194" height="93" viewBox="0 0 194 93" fill="none" xmlns="http://www.w3.org/2000/svg">
<path d="M150.196 0.00349122C149.224 0.0864632 148.482 0.90712 148.496 1.88268V25.1159C148.481 26.0917 149.224 26.9127 150.196 26.9957C150.695 27.0265 151.185 26.8498 151.55 26.5073C151.914 26.1649 152.121 25.6871 152.121 25.187V1.81212C152.121 1.312 151.914 0.834123 151.55 0.491627C151.185 0.149134 150.695 -0.027522 150.196 0.00349122Z" fill="black"/>
<path d="M51.5478 0.194273C50.6428 -0.258833 49.5418 0.107651 49.0888 1.01279L38.9632 21.2463C38.9616 21.2497 38.9581 21.2518 38.9544 21.2518C38.9506 21.2518 38.9472 21.2497 38.9455 21.2463L28.8199 1.01279C28.3536 0.133336 27.2705 -0.213029 26.3804 0.232673C25.4904 0.678375 25.1189 1.75312 25.5438 2.65331L37.2199 25.987C37.5305 26.6082 38.1656 27.0003 38.8601 26.9997C38.8912 26.9997 38.9229 26.996 38.9542 26.9945C38.9856 26.9931 39.0172 26.9997 39.0486 26.9997C39.7431 27.0002 40.3782 26.6081 40.6888 25.987L52.3664 2.65331C52.8193 1.74823 52.4529 0.647344 51.5478 0.194273Z" fill="black"/>
<path d="M109.868 0.185132C108.894 0.268952 108.15 1.09132 108.165 2.06897V19.8025L108.158 19.8122L108.147 19.8086L93.5033 0.710969C92.929 -0.0364994 91.879 -0.221505 91.084 0.284726C90.5519 0.634627 90.2358 1.23246 90.2463 1.8692V25.1123C90.2319 26.0898 90.9756 26.9121 91.9496 26.9958C92.4498 27.0268 92.9406 26.8497 93.3058 26.5065C93.671 26.1632 93.8781 25.6843 93.8781 25.1831V7.19725L93.8847 7.1882L93.8955 7.19116L108.54 26.2882C109.123 27.0489 110.197 27.2256 110.994 26.6921C111.506 26.3386 111.807 25.7528 111.797 25.1309V1.99783C111.797 1.49691 111.59 1.01796 111.225 0.674653C110.859 0.331202 110.369 0.154125 109.868 0.185132Z" fill="black"/>
<path d="M141.248 0.000217901H119.302C118.326 -0.0145985 117.505 0.727902 117.422 1.70026C117.391 2.19929 117.568 2.68886 117.911 3.05315C118.253 3.41743 118.731 3.62407 119.231 3.62416L128.418 3.62416C128.423 3.62431 128.427 3.62864 128.428 3.63404L128.428 25.1161C128.413 26.0917 129.155 26.9126 130.127 26.9959C130.626 27.0266 131.116 26.8499 131.48 26.5074C131.844 26.1649 132.051 25.6872 132.051 25.1872V3.63404L132.06 3.62416L141.177 3.62416C142.153 3.63867 142.974 2.89625 143.057 1.92412C143.087 1.42504 142.911 0.935418 142.568 0.571123C142.226 0.206829 141.748 0.000231331 141.248 0.000217901Z" fill="black"/>
<path d="M15.341 1.0119C15.0146 0.360068 14.3329 -0.0362751 13.6049 0.00262363C12.8783 -0.0346284 12.1984 0.361432 11.8724 1.0119L0.194222 24.3464C-0.258795 25.2515 0.107667 26.3525 1.01274 26.8055C1.91781 27.2585 3.01875 26.892 3.47177 25.987L6.3405 20.255C6.34208 20.2516 6.34548 20.2495 6.34921 20.2495H20.8642C20.8679 20.2495 20.8713 20.2516 20.8729 20.255L23.7416 25.987C24.1946 26.892 25.2955 27.2583 26.2005 26.8053C27.1055 26.3523 27.4719 25.2514 27.0189 24.3464L15.341 1.0119ZM7.72579 17.4865L13.598 5.75314C13.5995 5.74974 13.6029 5.74755 13.6067 5.74755C13.6104 5.74755 13.6138 5.74974 13.6154 5.75314L19.4879 17.4865C19.4894 17.4895 19.4892 17.493 19.4875 17.4959C19.4857 17.4988 19.4825 17.5005 19.4792 17.5004H7.7345C7.73114 17.5005 7.72798 17.4988 7.7262 17.4959C7.72442 17.493 7.72426 17.4895 7.72579 17.4865Z" fill="black"/>
<path d="M84.736 24.5174C84.7144 24.4559 84.689 24.3957 84.6602 24.3371L73.9065 2.60853C73.3541 1.3316 72.2037 0.412316 70.8363 0.155199C69.4689 -0.101918 68.0632 0.336691 67.0847 1.32574L64.4424 6.35646L58.1013 19.7129C57.0542 21.7309 55.4032 23.0671 53.4364 23.5349L63.1459 3.98454C63.1654 3.94476 63.1834 3.9044 63.1999 3.86346C63.3586 3.50669 63.7127 3.277 64.1033 3.27752C64.14 3.27814 64.1766 3.28086 64.213 3.28565L65.8099 0.445086C64.7868 -0.011118 63.6236 -0.0384624 62.5802 0.369163C61.5367 0.776789 60.7001 1.58541 60.2572 2.61434L49.4922 24.293C49.4756 24.324 49.4603 24.3557 49.4457 24.3885C49.2065 24.9181 49.2427 25.5313 49.5423 26.0291C49.8421 26.5269 50.3672 26.8458 50.9472 26.8821C51.2402 26.9065 51.5366 26.9187 51.8295 26.9187C55.6834 26.9187 59.0945 24.7651 60.9531 21.1568C60.961 21.1414 60.9689 21.126 60.9761 21.1101L67.0266 8.36428L67.0283 8.36021L67.082 8.24756L68.8532 4.52663L68.8506 4.52111L69.1171 3.95956C69.1284 3.93595 69.1389 3.91224 69.1487 3.88843C69.3021 3.5186 69.663 3.27751 70.0634 3.27751C70.4637 3.27751 70.8247 3.5186 70.978 3.88843C70.9911 3.92066 71.007 3.9526 71.0213 3.98395L80.6965 23.534C78.7436 23.0648 77.1008 21.7294 76.0552 19.7135L69.6876 6.28445L67.9296 10.0347L73.1798 21.1078C73.1874 21.1234 73.1952 21.1394 73.203 21.1551C75.0904 24.8171 78.405 26.9169 82.3002 26.9169C82.6077 26.9169 82.919 26.9033 83.2253 26.8766C83.4193 26.8599 83.6085 26.8078 83.7836 26.7227C84.6354 26.3555 85.0534 25.3891 84.736 24.5174Z" fill="black"/>
<g clip-path="url(#clip0_7079_62)">
<path d="M5.59087 89.5032C4.11694 89.5486 2.68482 89.0094 1.60687 88.0032C1.0723 87.4678 0.65366 86.8281 0.377018 86.124C0.100377 85.4198 -0.0283432 84.6662 -0.00112679 83.9102V76.0582C-0.0460495 75.3171 0.0667904 74.575 0.329937 73.8808C0.593084 73.1866 1.00055 72.5562 1.5254 72.0311C2.05026 71.5061 2.68055 71.0984 3.37465 70.835C4.06874 70.5716 4.81083 70.4585 5.55187 70.5032H13.4449C14.1867 70.4775 14.926 70.6037 15.6175 70.8738C16.3089 71.1439 16.9379 71.5524 17.4659 72.0742C17.9744 72.6022 18.3721 73.2268 18.6354 73.9111C18.8987 74.5953 19.0223 75.3254 18.9989 76.0582V83.9492C19.0276 84.6962 18.9031 85.4413 18.6331 86.1385C18.3631 86.8357 17.9533 87.4703 17.4289 88.0032C16.3375 89.0124 14.8926 89.5513 13.4069 89.5032H5.59087ZM2.79887 73.2622C2.44703 73.6353 2.1741 74.0756 1.99643 74.5567C1.81876 75.0379 1.74 75.5499 1.76487 76.0622V83.9152C1.73785 84.4319 1.81552 84.9487 1.9932 85.4347C2.17088 85.9207 2.44492 86.3657 2.79887 86.7432C3.5664 87.4283 4.57094 87.7871 5.59887 87.7432H13.4149C14.4428 87.787 15.4473 87.4283 16.2149 86.7432C16.5833 86.3795 16.8723 85.9433 17.0635 85.4622C17.2548 84.9811 17.3441 84.4655 17.3259 83.9482V76.0582C17.3452 75.0392 16.9701 74.0521 16.2789 73.3032C15.9058 72.9512 15.4655 72.6781 14.9844 72.5005C14.5032 72.3228 13.9912 72.2441 13.4789 72.2692H5.59087C4.5656 72.2185 3.56191 72.5755 2.79887 73.2622ZM4.59887 79.9622C4.59887 78.993 4.88625 78.0457 5.42467 77.2399C5.96309 76.4341 6.72837 75.806 7.62372 75.4351C8.51908 75.0643 9.50431 74.9672 10.4548 75.1563C11.4053 75.3454 12.2784 75.8121 12.9637 76.4973C13.649 77.1826 14.1157 78.0557 14.3047 79.0062C14.4938 79.9567 14.3968 80.9419 14.0259 81.8373C13.655 82.7327 13.027 83.4979 12.2212 84.0364C11.4154 84.5748 10.468 84.8622 9.49887 84.8622C8.20072 84.8593 6.95653 84.3425 6.03832 83.4248C5.1201 82.5072 4.60257 81.2633 4.59887 79.9652V79.9622ZM6.36187 79.9622C6.36148 80.5836 6.54546 81.1913 6.89053 81.7082C7.23561 82.225 7.72626 82.6279 8.3004 82.8659C8.87454 83.1038 9.50636 83.166 10.1159 83.0447C10.7254 82.9235 11.2853 82.6241 11.7246 82.1845C12.1639 81.7449 12.463 81.1848 12.5839 80.5752C12.7048 79.9656 12.6421 79.3338 12.4038 78.7598C12.1655 78.1858 11.7623 77.6954 11.2452 77.3507C10.7281 77.006 10.1204 76.8224 9.49887 76.8232C8.66671 76.8266 7.86962 77.1587 7.28128 77.7473C6.69294 78.3358 6.36103 79.133 6.35787 79.9652L6.36187 79.9622ZM13.4869 74.9422C13.4879 74.7227 13.5538 74.5084 13.6765 74.3264C13.7991 74.1444 13.9729 74.0027 14.1759 73.9194C14.379 73.836 14.6021 73.8147 14.8173 73.858C15.0325 73.9014 15.23 74.0075 15.3849 74.163C15.5398 74.3184 15.6452 74.5163 15.6878 74.7316C15.7303 74.9469 15.7082 75.17 15.6241 75.3728C15.54 75.5755 15.3978 75.7488 15.2153 75.8708C15.0329 75.9928 14.8184 76.058 14.5989 76.0582C14.4524 76.0587 14.3073 76.0303 14.1719 75.9746C14.0364 75.9189 13.9133 75.8369 13.8096 75.7335C13.7059 75.6301 13.6237 75.5072 13.5676 75.3719C13.5115 75.2366 13.4827 75.0916 13.4829 74.9452L13.4869 74.9422Z" fill="#005CFF"/>
<path d="M69.3889 76.0597H65.8519V73.7397C65.8327 73.6018 65.8442 73.4615 65.8856 73.3286C65.9269 73.1957 65.9971 73.0737 66.0911 72.9711C66.1851 72.8685 66.3006 72.7879 66.4294 72.7351C66.5581 72.6823 66.6969 72.6586 66.8359 72.6657H69.3359V68.8357L65.8939 68.8267C62.0779 68.8267 61.2099 71.6827 61.2099 73.5107V76.0637H59.0029V80.0067H61.2099V91.1737H65.8519V80.0067H68.9839L69.3889 76.0597Z" fill="#005CFF"/>
<path d="M113.114 87.3651C112.755 87.2223 112.434 86.9972 112.178 86.7079C111.921 86.4185 111.736 86.073 111.638 85.6991C111.205 83.754 111.011 81.7632 111.062 79.7711C111.012 77.7814 111.205 75.793 111.637 73.8501C111.733 73.4768 111.916 73.1313 112.17 72.8414C112.425 72.5516 112.743 72.3254 113.101 72.1811C116.488 70.8871 121.835 70.8501 122.434 70.8501H122.472C123.1 70.8501 128.447 70.8871 131.822 72.1761C132.181 72.319 132.501 72.5442 132.758 72.8336C133.014 73.1229 133.199 73.4684 133.297 73.8421C133.73 75.7872 133.923 77.778 133.873 79.7701C133.923 81.7612 133.73 83.7509 133.298 85.6951C133.201 86.0676 133.018 86.4123 132.764 86.7014C132.509 86.9905 132.191 87.2161 131.834 87.3601C128.447 88.6541 123.1 88.6911 122.501 88.6911C121.836 88.6921 116.488 88.6501 113.114 87.3651ZM113.695 73.6991C113.578 73.748 113.473 73.8235 113.39 73.9196C113.306 74.0158 113.247 74.1299 113.215 74.2531C112.817 76.0643 112.641 77.9173 112.691 79.7711C112.641 81.6259 112.817 83.4799 113.216 85.2921C113.248 85.417 113.31 85.5326 113.395 85.6295C113.48 85.7264 113.587 85.802 113.707 85.8501C116.85 87.0501 122.207 87.0651 122.434 87.0651C122.727 87.0651 128.085 87.0511 131.24 85.8461C131.357 85.7972 131.462 85.7217 131.545 85.6256C131.628 85.5294 131.688 85.4153 131.72 85.2921C132.118 83.4805 132.294 81.6272 132.244 79.7731C132.294 77.9176 132.118 76.0629 131.719 74.2501C131.686 74.1257 131.624 74.0108 131.539 73.9144C131.454 73.8181 131.347 73.743 131.228 73.6951C128.085 72.4951 122.728 72.4801 122.501 72.4801H122.434C122.208 72.4791 116.85 72.4931 113.695 73.6991ZM120.454 83.7501C120.324 83.6805 120.215 83.5769 120.14 83.4505C120.064 83.3241 120.024 83.1795 120.024 83.0321V76.5121C120.024 76.3646 120.064 76.2199 120.139 76.0933C120.215 75.9667 120.324 75.8631 120.454 75.7935C120.584 75.7239 120.73 75.6909 120.877 75.698C121.025 75.7052 121.167 75.7522 121.29 75.8341L126.178 79.0931C126.29 79.1674 126.381 79.2681 126.444 79.3863C126.508 79.5045 126.541 79.6365 126.541 79.7706C126.541 79.9047 126.508 80.0367 126.444 80.1549C126.381 80.2731 126.29 80.3738 126.178 80.4481L121.29 83.7071C121.167 83.7887 121.025 83.8356 120.877 83.8426C120.73 83.8497 120.584 83.8166 120.454 83.7471V83.7501ZM121.654 81.5101L124.254 79.7731L121.654 78.0371V81.5101Z" fill="#005CFF"/>
<path d="M191.32 73.9905C191.179 73.9171 191.041 73.8367 190.907 73.7495C190.519 73.4931 190.162 73.1909 189.845 72.8495C189.223 72.1543 188.808 71.2992 188.645 70.3805C188.587 70.091 188.57 69.7946 188.597 69.5005H184.999V83.4455C184.999 83.6325 184.999 83.8175 184.991 84.0005C184.991 84.0235 184.991 84.0445 184.991 84.0685C184.992 84.0788 184.992 84.0892 184.991 84.0995V84.1075C184.953 84.608 184.793 85.0914 184.524 85.5153C184.256 85.9393 183.887 86.2906 183.45 86.5385C182.996 86.7972 182.481 86.933 181.958 86.9325C181.146 86.9325 180.367 86.6098 179.793 86.0355C179.218 85.4612 178.896 84.6822 178.896 83.87C178.896 83.0578 179.218 82.2788 179.793 81.7045C180.367 81.1301 181.146 80.8075 181.958 80.8075C182.276 80.8071 182.593 80.857 182.895 80.9555V77.2835C181.977 77.1649 181.045 77.2379 180.156 77.4978C179.268 77.7577 178.443 78.1989 177.733 78.7935C177.112 79.3323 176.59 79.9753 176.189 80.6935C175.683 81.6243 175.409 82.6632 175.389 83.7225C175.381 84.5367 175.512 85.3464 175.776 86.1165V86.1255C176.014 86.7651 176.344 87.3667 176.755 87.9115C177.201 88.4769 177.727 88.9735 178.317 89.3855V89.3765L178.326 89.3855C179.42 90.1064 180.7 90.4935 182.009 90.4995C182.953 90.4995 183.885 90.2948 184.741 89.8995C185.587 89.5006 186.342 88.933 186.96 88.2315C187.474 87.6353 187.883 86.9559 188.169 86.2225C188.433 85.4832 188.58 84.7071 188.604 83.9225V76.5225C188.648 76.5485 189.23 76.9345 189.23 76.9345C189.902 77.3297 190.625 77.629 191.379 77.8235C192.104 77.9895 192.842 78.09 193.585 78.1235V74.5435C192.796 74.5533 192.016 74.3631 191.32 73.9905Z" fill="#005CFF"/>
</g>
<defs>
<clipPath id="clip0_7079_62">
<rect width="194" height="26" fill="white" transform="translate(0 67)"/>
</clipPath>
</defs>
</svg>
